Patient4_TMGait_0pt8_01_left_25_EMG.mot
version=1
nRows=16
nColumns=33
inDegrees=no
endheader
time	1LAddLong	2LGlutMax	3LGlutMed	4LIliopsoas	5LSemiMemb	6LBicFemLong	7LRecFem	8LVastMed	9LVastLat	10LGasMed	11LTibAnt	12lTibPost	13LPeroneusLong	14LSol	15LExtDigLong	16LFlexDigLong	17RAddLong	18RGlutMax	19RGlutMed	20RIliopsoas	21RSemiMemb	22RBicFemLong	23RRecFem	24RVastMed	25RVastLat	26RGasMed	27RTibAnt	28RTibPost	29RPeroneusLong	30RSol	31RExtDigLong	32RFlexDigLong
27.75	-0.006866	0.5101	-0.30838	0.019379	-0.026703	-0.066071	0.68268	-0.019684	-0.73196	-0.06897	0.11169	-0.079803	-0.054779	-0.19913	0.60867	0.089874	0.008392	-0.6488	-1.1934	0.34317	-0.10361	-0.023651	0.88547	-0.097351	-0.031433	-0.000305	0.15503	-0.001526	-0.065155	0.010681	-0.001678	-0.028076
27.751	-0.01358	0.39185	-0.30884	0.028076	-0.034332	-0.016327	0.66727	0.001984	-0.65018	-0.079956	0.042877	-0.056305	0.15335	-0.17059	0.023804	0.088348	0.037994	-0.57526	-1.1716	0.33279	-0.11536	-0.031433	0.81497	-0.19775	-0.030823	0.001373	0.11383	-0.004578	-0.016785	-0.03006	-0.002594	-0.02121
27.752	-0.006866	0.25696	-0.28839	0.028839	-0.027924	0.083313	0.62943	0.01358	-0.57312	-0.076599	0.002747	-0.043945	0.25055	-0.19333	-0.2121	0.095673	0.090332	-0.45883	-1.2437	0.22079	-0.10559	-0.050507	0.79727	-0.20783	-0.025635	-0.001373	0.24017	-0.001984	-0.001678	-0.088959	-0.003662	-0.027466
27.753	0.011597	0.17899	-0.30197	0.016174	-0.059357	0.11932	0.62256	0.019989	-0.5397	-0.12314	0.041046	-0.034637	0.1033	-0.17288	-0.15656	0.088806	0.1088	-0.35889	-1.2531	0.12741	-0.093079	-0.06424	0.7431	-0.14603	-0.014954	-0.005493	0.13977	0.006866	0.005951	-0.097809	-0.001831	-0.02655
27.754	-0.001373	0.093231	-0.35934	0.005341	-0.07309	0.31525	0.71396	0.012054	-0.4303	-0.1268	0.006104	-0.023956	0.082703	-0.077515	0.088196	0.10803	0.10819	-0.27313	-1.1864	-0.044708	-0.084229	-0.081482	0.69107	-0.16312	-0.031433	-0.001068	0.29694	-0.003967	-0.074463	-0.16235	-0.00061	-0.023804
27.755	0.010834	-0.006866	-0.25375	0.023651	-0.086517	0.37445	0.7373	0.012817	-0.37796	-0.064697	-0.031433	-0.005493	-0.17425	0.001678	-0.11185	0.10056	0.097046	-0.17227	-1.2546	-0.12497	-0.10483	-0.10452	0.74951	-0.19257	-0.032349	-0.011139	0.29953	-0.002899	-0.25101	-0.18204	0	-0.032654
27.756	0.024719	-0.10254	-0.19073	0.045166	-0.10529	0.29892	0.77698	0.00473	-0.45395	-0.03952	-0.039368	0.011139	-0.31799	0.03006	-0.15808	0.096283	0.077057	-0.09491	-1.131	-0.21271	-0.10483	-0.16373	0.78598	-0.21515	-0.038452	0.000305	0.033112	-0.000153	-0.17685	-0.20844	-0.001068	-0.021667
27.757	0.022278	-0.15793	-0.10407	0.035706	-0.094299	0.16022	0.74036	0.005646	-0.58716	-0.010071	-0.015259	0.016174	-0.12985	-0.035706	-0.078583	0.06958	0.046234	-0.050812	-1.0916	-0.19348	-0.11322	-0.16144	0.86014	-0.22492	-0.014496	0.028076	0.22476	0.001526	0.023956	-0.29465	-0.004578	-0.01358
27.758	0.037079	-0.15869	0.010834	0.019379	-0.1059	-0.18478	0.6897	-0.00412	-0.55893	0.036316	-0.020599	0.040741	-0.008392	-0.070801	0.000153	0.041962	-0.004425	0.067291	-1.1444	-0.1918	-0.12268	0.004578	0.84732	-0.20523	-0.0383	0.00946	-0.1358	0	0.12344	-0.22278	-0.002136	-0.011292
27.759	0.02655	-0.15457	0.060577	0.020599	-0.057678	-0.39322	0.62637	-0.000458	-0.4776	-0.000305	0.000458	0.055695	0.22598	-0.13886	0.05249	0.049286	-0.083466	0.19608	-1.3179	-0.047607	-0.10071	0.19196	0.77057	-0.22812	-0.020599	-0.001831	-0.18829	0.001984	0.018768	-0.08316	0.000458	-0.012207
27.76	0.019531	-0.14191	0.033722	0.012817	0.083771	-0.5368	0.53207	0.000763	-0.42053	0.011902	-0.002899	0.10269	0.29144	-0.29297	0.046997	0.066833	-0.048065	0.22751	-1.2834	0.0354	-0.071259	0.12833	0.79514	-0.22186	-0.018158	-0.002594	0.25436	-0.00061	0.032196	0.015411	-0.004425	-0.018921
27.761	0.048828	-0.20874	-0.10147	0.000305	0.13916	-0.3389	0.5423	0.002289	-0.42129	0.16678	-0.016327	0.20889	0.090485	-0.39307	0.036621	0.063782	0.013275	0.28686	-1.4174	0.12787	-0.046997	0.03952	0.74387	-0.22507	-0.027771	-0.012512	-0.13748	-0.001678	-0.027008	0.039063	-0.003967	-0.02533
27.762	0.029297	-0.27695	-0.13412	-0.01709	0.087128	-0.19806	0.46768	0.005035	-0.41931	0.26245	-0.009918	0.092316	-0.38788	-0.40894	-0.010223	0.041809	0.03006	0.30014	-1.4777	0.18585	-0.019073	0.00473	0.54718	-0.22476	-0.030823	-0.010376	-0.18036	-0.000916	-0.10162	0.070953	0.001373	-0.028076
27.763	0.029755	-0.3923	-0.233	-0.000305	0.026855	-0.14221	0.38116	0.014191	-0.41092	0.19012	0.000305	-0.037842	-0.27634	-0.20859	-0.050049	0.002136	0.065918	0.37323	-1.145	0.17807	-0.054169	0.009766	0.47867	-0.25742	-0.045471	-0.002289	-0.11993	-0.005646	-0.048828	0.027313	-0.00061	-0.021362
27.764	0.036316	-0.40115	-0.18494	0.014954	-0.025177	-0.10803	0.28824	0.010681	-0.38605	0.23499	0.019989	0.40405	0.099182	0.006104	-0.057678	-0.044708	0.059509	0.51132	-0.95917	0.089417	-0.084229	0.015869	0.55969	-0.23148	-0.047607	-0.007782	-0.085144	-0.003967	-0.026245	-0.048676	-0.002441	-0.016937
27.765	0.009918	-0.37445	-0.099182	0.012665	-0.072479	-0.045929	0.18188	0.008545	-0.36774	0.2211	0.020599	0.017853	0.055237	0.15167	-0.000153	-0.087128	0.002441	0.60074	-1.3651	0.046234	-0.10071	-0.013428	0.62759	-0.25314	-0.057831	-0.006409	-0.11337	0.003967	-0.002594	-0.012512	0	-0.019531
